<svg width="32" height="28" viewBox="0 0 32 28" fill="none" xmlns="http://www.w3.org/2000/svg">
<g filter="url(#filter0_d_303_8485)">
<g clip-path="url(#clip0_303_8485)">
<rect x="8" y="6" width="16" height="12" fill="#E1E7FE"/>
<g clip-path="url(#clip1_303_8485)">
<mask id="mask0_303_8485" style="mask-type:alpha" maskUnits="userSpaceOnUse" x="6" y="5" width="20" height="14">
<path d="M23.5556 5H8.44453C7.46269 5 6.66675 5.83574 6.66675 6.86667V17.1333C6.66675 18.1643 7.46269 19 8.44453 19H23.5556C24.5375 19 25.3334 18.1643 25.3334 17.1333V6.86667C25.3334 5.83574 24.5375 5 23.5556 5Z" fill="white"/>
</mask>
<g mask="url(#mask0_303_8485)">
<path d="M23.5556 5H8.44453C7.46269 5 6.66675 5.83574 6.66675 6.86667V17.1333C6.66675 18.1643 7.46269 19 8.44453 19H23.5556C24.5375 19 25.3334 18.1643 25.3334 17.1333V6.86667C25.3334 5.83574 24.5375 5 23.5556 5Z" fill="#22438B"/>
<path fill-rule="evenodd" clip-rule="evenodd" d="M9.33336 5.93332L7.53247 5.95759L7.55558 7.79999L22.6507 18.0928L24.4614 18.0583L24.4276 16.2271L9.33336 5.93332Z" fill="white"/>
<path fill-rule="evenodd" clip-rule="evenodd" d="M8.44455 5.93332L7.55566 6.86665L23.5557 18.0667L24.4446 17.1333L8.44455 5.93332Z" fill="#C7152A"/>
<path fill-rule="evenodd" clip-rule="evenodd" d="M22.6667 5.93332H24.4444V7.79999C24.4444 7.79999 14 14.7029 9.34932 18.0928C9.29332 18.1339 7.57332 18.0956 7.57332 18.0956L7.43555 16.3213L22.6667 5.93332Z" fill="white"/>
<path fill-rule="evenodd" clip-rule="evenodd" d="M23.5939 5.9072L24.4446 6.86666L8.44455 18.0667L7.55566 17.1333L23.5939 5.9072Z" fill="#C7152A"/>
<path fill-rule="evenodd" clip-rule="evenodd" d="M13.7779 5.93332H18.2223V9.66665H24.4446V14.3333H18.2223V18.0667H13.7779V14.3333H7.55566V9.66665H13.7779V5.93332Z" fill="white"/>
<path fill-rule="evenodd" clip-rule="evenodd" d="M14.6668 5.93332H17.3334V10.6H24.4446V13.4H17.3334V18.0667H14.6668V13.4H7.55566V10.6H14.6668V5.93332Z" fill="#C7152A"/>
<path d="M23.5555 5.46667H8.44442C7.70804 5.46667 7.11108 6.09348 7.11108 6.86667V17.1333C7.11108 17.9065 7.70804 18.5333 8.44442 18.5333H23.5555C24.2919 18.5333 24.8889 17.9065 24.8889 17.1333V6.86667C24.8889 6.09348 24.2919 5.46667 23.5555 5.46667Z" stroke="black" stroke-opacity="0.1"/>
</g>
</g>
</g>
</g>
<defs>
<filter id="filter0_d_303_8485" x="0" y="0" width="32" height="28" filterUnits="userSpaceOnUse" color-interpolation-filters="sRGB">
<feFlood flood-opacity="0" result="BackgroundImageFix"/>
<feColorMatrix in="SourceAlpha" type="matrix" values="0 0 0 0 0 0 0 0 0 0 0 0 0 0 0 0 0 0 127 0" result="hardAlpha"/>
<feOffset dy="2"/>
<feGaussianBlur stdDeviation="4"/>
<feColorMatrix type="matrix" values="0 0 0 0 0 0 0 0 0 0 0 0 0 0 0 0 0 0 0.06 0"/>
<feBlend mode="normal" in2="BackgroundImageFix" result="effect1_dropShadow_303_8485"/>
<feBlend mode="normal" in="SourceGraphic" in2="effect1_dropShadow_303_8485" result="shape"/>
</filter>
<clipPath id="clip0_303_8485">
<rect x="8" y="6" width="16" height="12" rx="2" fill="white"/>
</clipPath>
<clipPath id="clip1_303_8485">
<rect width="18.6667" height="14" fill="white" transform="translate(6.66675 5)"/>
</clipPath>
</defs>
</svg>
